<svg width="130" height="34" viewBox="0 0 130 34" fill="none" xmlns="http://www.w3.org/2000/svg">
<path d="M13.68 16.36H10V33H3.16V16.36H0.68V10.68H3.16V10.04C3.16 7.29333 3.94667 5.21333 5.52 3.8C7.09333 2.36 9.4 1.64 12.44 1.64C12.9467 1.64 13.32 1.65333 13.56 1.68V7.48C12.2533 7.4 11.3333 7.58667 10.8 8.04C10.2667 8.49333 10 9.30666 10 10.48V10.68H13.68V16.36ZM20.3341 8.36C19.1341 8.36 18.1474 8.01333 17.3741 7.32C16.6274 6.6 16.2541 5.72 16.2541 4.68C16.2541 3.61333 16.6274 2.73333 17.3741 2.04C18.1474 1.32 19.1341 0.959998 20.3341 0.959998C21.5074 0.959998 22.4674 1.32 23.2141 2.04C23.9874 2.73333 24.3741 3.61333 24.3741 4.68C24.3741 5.72 23.9874 6.6 23.2141 7.32C22.4674 8.01333 21.5074 8.36 20.3341 8.36ZM23.7341 10.68V33H16.8941V10.68H23.7341ZM42.2909 10.44C44.9043 10.44 46.9843 11.2933 48.5309 13C50.1043 14.68 50.8909 17 50.8909 19.96V33H44.0909V20.88C44.0909 19.3867 43.7043 18.2267 42.9309 17.4C42.1576 16.5733 41.1176 16.16 39.8109 16.16C38.5043 16.16 37.4643 16.5733 36.6909 17.4C35.9176 18.2267 35.5309 19.3867 35.5309 20.88V33H28.6909V10.68H35.5309V13.64C36.2243 12.6533 37.1576 11.88 38.3309 11.32C39.5043 10.7333 40.8243 10.44 42.2909 10.44ZM54.2841 21.8C54.2841 19.5067 54.7107 17.4933 55.5641 15.76C56.4441 14.0267 57.6307 12.6933 59.1241 11.76C60.6174 10.8267 62.2841 10.36 64.1241 10.36C65.5907 10.36 66.9241 10.6667 68.1241 11.28C69.3507 11.8933 70.3107 12.72 71.0041 13.76V3.4H77.8441V33H71.0041V29.8C70.3641 30.8667 69.4441 31.72 68.2441 32.36C67.0707 33 65.6974 33.32 64.1241 33.32C62.2841 33.32 60.6174 32.8533 59.1241 31.92C57.6307 30.96 56.4441 29.6133 55.5641 27.88C54.7107 26.12 54.2841 24.0933 54.2841 21.8ZM71.0041 21.84C71.0041 20.1333 70.5241 18.7867 69.5641 17.8C68.6307 16.8133 67.4841 16.32 66.1241 16.32C64.7641 16.32 63.6041 16.8133 62.6441 17.8C61.7107 18.76 61.2441 20.0933 61.2441 21.8C61.2441 23.5067 61.7107 24.8667 62.6441 25.88C63.6041 26.8667 64.7641 27.36 66.1241 27.36C67.4841 27.36 68.6307 26.8667 69.5641 25.88C70.5241 24.8933 71.0041 23.5467 71.0041 21.84ZM103.832 21.48C103.832 22.12 103.793 22.7867 103.713 23.48H88.2325C88.3392 24.8667 88.7792 25.9333 89.5525 26.68C90.3525 27.4 91.3258 27.76 92.4725 27.76C94.1792 27.76 95.3658 27.04 96.0325 25.6H103.313C102.939 27.0667 102.259 28.3867 101.273 29.56C100.313 30.7333 99.0992 31.6533 97.6325 32.32C96.1658 32.9867 94.5258 33.32 92.7125 33.32C90.5258 33.32 88.5792 32.8533 86.8725 31.92C85.1658 30.9867 83.8325 29.6533 82.8725 27.92C81.9125 26.1867 81.4325 24.16 81.4325 21.84C81.4325 19.52 81.8992 17.4933 82.8325 15.76C83.7925 14.0267 85.1258 12.6933 86.8325 11.76C88.5392 10.8267 90.4992 10.36 92.7125 10.36C94.8725 10.36 96.7925 10.8133 98.4725 11.72C100.153 12.6267 101.459 13.92 102.393 15.6C103.353 17.28 103.832 19.24 103.832 21.48ZM96.8325 19.68C96.8325 18.5067 96.4325 17.5733 95.6325 16.88C94.8325 16.1867 93.8325 15.84 92.6325 15.84C91.4858 15.84 90.5125 16.1733 89.7125 16.84C88.9392 17.5067 88.4592 18.4533 88.2725 19.68H96.8325ZM117.481 26.6L122.321 10.68H129.601L121.681 33H113.241L105.321 10.68H112.641L117.481 26.6Z" fill="url(#paint0_linear_1_4490)"/>
<defs>
<linearGradient id="paint0_linear_1_4490" x1="-9.75" y1="9.16667" x2="130.507" y2="53.1729" gradientUnits="userSpaceOnUse">
<stop stop-color="#951FCD"/>
<stop offset="0.370774" stop-color="#7C0CEC"/>
<stop offset="0.832516" stop-color="#4486C2"/>
</linearGradient>
</defs>
</svg>
