<svg width="439" height="439" viewBox="0 0 439 439" fill="none" xmlns="http://www.w3.org/2000/svg">
<path opacity="0.7" d="M59.6426 146.705C59.6426 146.705 35.1639 209.921 69.564 273.576C103.964 337.231 174.819 370.858 231.529 399.613C288.239 428.367 347.126 414.363 375.108 367.267C403.09 320.171 364.712 286.553 364.66 219.395C364.607 152.236 374.713 134.457 338.32 77.7206C301.927 20.9842 212.713 8.42002 145.248 50.5026C77.782 92.5851 59.6426 146.705 59.6426 146.705Z" fill="white"/>
<path d="M87.5366 72.7599C99.3457 58.6416 115.317 47.7105 134.334 47.9476C166.82 48.3515 184.38 77.0972 203.011 99.2842C212.669 110.786 223.635 121.884 237.982 127.284C259.502 135.396 283.471 130.664 304.438 123.139C313.832 119.768 324.965 115.027 335.536 117.45C367.698 124.808 364.352 164.054 359.041 188.902C351.867 222.459 340.207 258.185 316.58 283.963C260.011 345.677 158.207 307.844 107.177 258.597C103.428 254.98 99.8374 251.196 96.4571 247.227C87.6823 236.967 80.2583 225.624 74.3666 213.477C57.948 179.279 55.6564 137.706 69.9239 102.375C74.2355 91.6554 80.1764 81.6661 87.5366 72.7599Z" fill="#2260FF"/>
<path opacity="0.7" d="M87.5366 72.7599C99.3457 58.6416 115.317 47.7105 134.334 47.9476C166.82 48.3515 184.38 77.0972 203.011 99.2842C212.669 110.786 223.635 121.884 237.982 127.284C259.502 135.396 283.471 130.664 304.438 123.139C313.832 119.768 324.965 115.027 335.536 117.45C367.698 124.808 364.352 164.054 359.041 188.902C351.867 222.459 340.207 258.185 316.58 283.963C260.011 345.677 158.207 307.844 107.177 258.597C103.428 254.98 99.8374 251.196 96.4571 247.227C87.6823 236.967 80.2583 225.624 74.3666 213.477C57.948 179.279 55.6564 137.706 69.9239 102.375C74.2355 91.6554 80.1764 81.6661 87.5366 72.7599Z" fill="white"/>
<path d="M263.699 285.104H285.605V276.307H263.699V285.104Z" stroke="white" stroke-linecap="round" stroke-linejoin="round"/>
<path d="M252.75 273.479H274.656V264.682H252.75V273.479Z" stroke="white" stroke-linecap="round" stroke-linejoin="round"/>
<path d="M202.484 202.458H224.39V193.66H202.484V202.458Z" stroke="white" stroke-linecap="round" stroke-linejoin="round"/>
<path d="M214.478 191.509H236.384V182.712H214.478V191.509Z" stroke="white" stroke-linecap="round" stroke-linejoin="round"/>
<path d="M296.009 92.4007H317.915V83.6031H296.009V92.4007Z" stroke="white" stroke-linecap="round" stroke-linejoin="round"/>
<path d="M284.428 80.6794H306.334V71.8818H284.428V80.6794Z" stroke="white" stroke-linecap="round" stroke-linejoin="round"/>
<path d="M125.932 85.4206H147.838V76.623H125.932V85.4206Z" stroke="white" stroke-linecap="round" stroke-linejoin="round"/>
<path d="M114.351 73.7081H136.257V64.9105H114.351V73.7081Z" stroke="white" stroke-linecap="round" stroke-linejoin="round"/>
<path d="M191.843 123.368H213.749V114.57H191.843V123.368Z" stroke="white" stroke-linecap="round" stroke-linejoin="round"/>
<path d="M308.731 176.654H330.637V167.856H308.731V176.654Z" stroke="white" stroke-linecap="round" stroke-linejoin="round"/>
<path d="M334.755 253.76H356.661V244.962H334.755V253.76Z" stroke="white" stroke-linecap="round" stroke-linejoin="round"/>
<path d="M227.016 202.458H248.922V193.66H227.016V202.458Z" stroke="white" stroke-linecap="round" stroke-linejoin="round"/>
<path d="M313.586 228.025C292.295 227.788 270.345 227.788 249.703 228.025" stroke="white" stroke-linecap="round" stroke-linejoin="round"/>
<path d="M322.358 228.025H317.011" stroke="white" stroke-linecap="round" stroke-linejoin="round"/>
<path d="M66.728 252.785C88.0195 253.022 109.969 253.022 130.611 252.785" stroke="white" stroke-linecap="round" stroke-linejoin="round"/>
<path d="M57.9919 252.785H63.3477" stroke="white" stroke-linecap="round" stroke-linejoin="round"/>
<path d="M212.757 137.205H215.777" stroke="white" stroke-linecap="round" stroke-linejoin="round"/>
<path d="M180.929 137.205H209.333" stroke="white" stroke-linecap="round" stroke-linejoin="round"/>
<path d="M77.6328 194.029H55.7267V202.827H77.6328V194.029Z" stroke="white" stroke-linecap="round" stroke-linejoin="round"/>
<path d="M56.7012 180.192H53.6809" stroke="white" stroke-linecap="round" stroke-linejoin="round"/>
<path d="M88.5375 180.192H60.1342" stroke="white" stroke-linecap="round" stroke-linejoin="round"/>
<path d="M30.5456 356.494H408.454" stroke="#263238" stroke-linecap="round" stroke-linejoin="round"/>
<path d="M262.768 365.415C262.768 365.415 257.114 373.413 262.97 376.1C268.826 378.787 320.681 372.588 344.949 372.36C369.217 372.132 382.474 362.965 381.956 360.191C381.438 357.416 375.521 352.131 375.521 352.131L371.394 356.951C371.394 356.951 375.784 358.268 375.661 360.305C375.538 362.342 359.462 368.971 339.242 366.179C319.021 363.387 275.929 372.044 272.514 371.657C269.098 371.271 272.364 363.633 272.364 363.633L262.768 365.415Z" fill="#263238"/>
<path d="M344.176 368.602C312.296 370.815 259.326 370.068 259.326 370.068C231.985 368.075 226.84 359.058 231.107 348.794C237.754 332.99 266.947 314.245 272.268 313.806C281.048 313.095 290.284 316.58 290.284 316.58L295.991 315.378C294.235 310.645 312.278 300.109 320.523 304.657C328.767 309.205 345.809 302.963 350.945 306.167C352.308 307.044 353.479 308.188 354.387 309.53C355.843 311.702 356.866 314.135 357.399 316.695H357.469C358.76 316.348 360.085 316.142 361.42 316.08C364.247 315.931 368.014 316.361 370.964 318.934C371.718 319.603 372.436 320.312 373.115 321.058C378.436 326.871 385.284 337.854 386.864 344.264C388.708 351.551 376.047 366.381 344.176 368.602Z" fill="#999999"/>
<mask id="mask0_1_4515" style="mask-type:luminance" maskUnits="userSpaceOnUse" x="229" y="303" width="159" height="68">
<path d="M344.176 368.602C312.296 370.815 259.326 370.068 259.326 370.068C231.985 368.075 226.84 359.058 231.107 348.794C237.754 332.99 266.947 314.245 272.268 313.806C281.048 313.095 290.284 316.58 290.284 316.58L295.991 315.378C294.235 310.645 312.278 300.109 320.523 304.657C328.767 309.205 345.809 302.963 350.945 306.167C352.308 307.044 353.479 308.188 354.387 309.53C355.843 311.702 356.866 314.135 357.399 316.695H357.469C358.76 316.348 360.085 316.142 361.42 316.08C364.247 315.931 368.014 316.361 370.964 318.934C371.718 319.603 372.436 320.312 373.115 321.058C378.436 326.871 385.284 337.854 386.864 344.264C388.708 351.551 376.047 366.381 344.176 368.602Z" fill="white"/>
</mask>
<g mask="url(#mask0_1_4515)">
<path opacity="0.2" d="M316.844 309.636C315.29 306.905 334.913 308.196 336.994 309.636C339.075 311.075 339.084 315.588 341.34 314.368C343.14 313.402 349.997 309.688 354.387 309.53C355.843 311.702 356.866 314.135 357.399 316.695C357.399 316.695 330.4 324.324 328.662 322.296C326.923 320.268 333.526 318.582 335.607 314.131C337.688 309.679 329.355 310.9 327.626 310.935C325.896 310.97 318.398 312.357 316.844 309.636Z" fill="black"/>
<path opacity="0.2" d="M344.176 368.602C312.296 370.815 259.326 370.068 259.326 370.068C231.985 368.075 226.84 359.058 231.107 348.794C232.161 349.62 233.969 349.988 236.937 349.418C246.692 347.539 252.241 347.021 258.501 352.93C264.761 358.839 271.881 362.43 275.183 361.271C275.183 361.271 275.639 348.224 288.353 338.855C301.066 329.487 304.06 332.147 306.598 329.663C309.135 327.178 310.636 322.639 303.349 320.075C296.062 317.511 292.514 316.563 292.514 316.563C292.514 316.563 300.539 315.94 307.493 319.057C314.447 322.173 320.514 329.592 317.564 331.269C314.614 332.946 321.901 335.932 326.941 335.133C331.401 334.413 346.204 334.334 349.172 334.211C346.538 334.773 334.755 338.452 334.755 341.279C334.755 341.279 338.39 347.249 338.364 354.001C338.337 360.753 346.266 361.613 349.699 359.085C353.132 356.556 353.852 353.088 352.552 346.485C351.253 339.883 347.618 339.391 342.894 340.418C342.894 340.418 348.97 336.757 350.884 337.969C352.798 339.18 358.171 338.671 359.216 344.396C360.261 350.12 356.582 354.817 358.338 356.38C360.094 357.943 370.147 356.205 371.886 352.868C373.624 349.532 372.474 330.418 370.797 330.04C369.12 329.663 360.735 332.209 360.498 332.279C360.895 331.162 361.579 330.169 362.48 329.399C363.381 328.628 364.469 328.108 365.634 327.889C368.725 327.345 372.535 324.307 373.141 320.988C378.462 326.8 385.31 337.784 386.891 344.194C388.708 351.551 376.047 366.381 344.176 368.602Z" fill="black"/>
</g>
<path d="M344.176 368.602C312.296 370.815 259.326 370.068 259.326 370.068C231.985 368.075 226.84 359.058 231.107 348.794C237.754 332.99 266.947 314.245 272.268 313.806C281.048 313.095 290.284 316.58 290.284 316.58L295.991 315.378C294.235 310.645 312.278 300.109 320.523 304.657C328.767 309.205 345.809 302.963 350.945 306.167C352.308 307.044 353.479 308.188 354.387 309.53C355.843 311.702 356.866 314.135 357.399 316.695H357.469C358.76 316.348 360.085 316.142 361.42 316.08C364.247 315.931 368.014 316.361 370.964 318.934C371.718 319.603 372.436 320.312 373.115 321.058C378.436 326.871 385.284 337.854 386.864 344.264C388.708 351.551 376.047 366.381 344.176 368.602Z" stroke="#263238" stroke-linecap="round" stroke-linejoin="round"/>
<path d="M290.284 316.58C290.284 316.58 294.279 317.915 304.332 320.312C314.385 322.709 308.845 330.848 301.549 331.287C294.253 331.726 275.525 348.03 275.174 359.102C274.823 370.174 289.74 368.558 289.74 368.558" stroke="#263238" stroke-linecap="round" stroke-linejoin="round"/>
<path d="M296 315.378C296 315.378 309.908 314.789 319.285 320.312C328.662 325.835 353.676 318.108 353.676 318.108" stroke="#263238" stroke-linecap="round" stroke-linejoin="round"/>
<path d="M335.607 341.296C339.786 347.021 338.03 365.336 338.03 365.336C338.03 365.336 365.573 362.825 373.15 356.661C380.727 350.498 374.142 330.444 369.972 329.698C365.801 328.952 350.524 337.661 338.364 339.356" stroke="#263238" stroke-linecap="round" stroke-linejoin="round"/>
<path d="M340.128 341.296C340.128 341.296 348.812 337.995 350.55 341.296C352.289 344.597 355.73 355.766 353.676 359.638C351.621 363.51 343.948 362.79 343.948 362.79" stroke="#263238" stroke-linecap="round" stroke-linejoin="round"/>
<path d="M307.476 306.422C307.476 306.422 318.574 311.102 324.834 311.014C331.094 310.926 338.39 310.461 335.607 314.166C334.367 315.753 333.209 317.403 332.139 319.109" stroke="#263238" stroke-linecap="round" stroke-linejoin="round"/>
<path d="M280.082 347.732C280.082 347.732 292.558 352.122 306.106 350.076C319.653 348.03 321.866 350.471 321.866 350.471V359.638C321.866 359.638 313.086 358.013 307.493 359.638C301.9 361.262 283.524 362.5 275.192 359.102" stroke="#263238" stroke-linecap="round" stroke-linejoin="round"/>
<path d="M276.403 354.018C276.403 354.018 280.995 355.3 292.497 355.327C303.999 355.353 314.772 354.378 314.772 354.378" stroke="#263238" stroke-linecap="round" stroke-linejoin="round"/>
<path d="M273.69 327.099L273.33 323.104C273.312 322.882 273.375 322.661 273.508 322.482C273.64 322.303 273.833 322.177 274.05 322.129L283.375 320.092C283.501 320.058 283.633 320.053 283.762 320.076C283.89 320.1 284.012 320.152 284.118 320.228C284.224 320.305 284.312 320.404 284.375 320.519C284.437 320.634 284.474 320.761 284.481 320.891L284.858 324.667C284.878 324.886 284.819 325.106 284.692 325.286C284.565 325.466 284.378 325.595 284.165 325.65L274.814 327.907C274.686 327.944 274.551 327.952 274.42 327.929C274.288 327.907 274.163 327.855 274.055 327.777C273.947 327.699 273.858 327.598 273.794 327.48C273.731 327.363 273.695 327.232 273.69 327.099Z" fill="#730FF2" stroke="#263238" stroke-linecap="round" stroke-linejoin="round"/>
<path d="M277.079 322.709L282.119 323.578L280.995 324.245L275.604 323.473L277.079 322.709Z" fill="#263238"/>
<path d="M287.413 317.836C289.141 316.368 291.297 315.497 293.559 315.351C296.94 315.351 299.547 316.396 299.196 316.598C298.845 316.8 293.471 317.854 292.471 319.065L287.413 317.836Z" fill="#263238"/>
<path d="M237.315 360.208C237.315 360.208 226.375 363.782 232.275 367.952C238.175 372.123 246.174 371.254 252.68 367.074L253.373 363.167C250.818 363.56 248.333 364.323 245.998 365.432C242.609 367.188 234.707 365.432 235.225 364.467C235.446 364.167 235.734 363.924 236.067 363.758C236.4 363.592 236.767 363.507 237.139 363.51L237.315 360.208Z" fill="#263238"/>
<path d="M271.021 369.805C271.829 374.195 302.348 367.873 327.134 363.501C351.92 359.128 373.844 364.194 375.67 360.305C377.496 356.415 381.956 360.191 381.956 360.191C379.791 364.518 376.165 367.939 371.719 369.849C364.449 372.825 330.304 372.132 311.137 376.056C291.97 379.981 257.965 385.714 260.415 370.788L271.021 369.805Z" fill="#263238"/>
<path d="M65.85 319.592C65.85 319.592 65.3495 342.218 102.814 358.9C140.278 375.582 242.091 383.686 260.643 324.913L202.95 308.345H125.554L108.521 316.08L65.85 319.592Z" fill="#730FF2"/>
<mask id="mask1_1_4515" style="mask-type:luminance" maskUnits="userSpaceOnUse" x="65" y="308" width="196" height="64">
<path d="M65.85 319.592C65.85 319.592 65.3495 342.218 102.814 358.9C140.278 375.582 242.091 383.686 260.643 324.913L202.95 308.345H125.554L108.521 316.08L65.85 319.592Z" fill="white"/>
</mask>
<g mask="url(#mask1_1_4515)">
<path opacity="0.2" d="M65.85 319.592C65.85 319.592 65.3495 342.218 102.814 358.9C140.278 375.582 242.091 383.686 260.643 324.913L202.95 308.345H125.554L108.521 316.08L65.85 319.592Z" fill="black"/>
</g>
<path d="M65.85 319.592C65.85 319.592 65.3495 342.218 102.814 358.9C140.278 375.582 242.091 383.686 260.643 324.913L202.95 308.345H125.554L108.521 316.08L65.85 319.592Z" stroke="#263238" stroke-linecap="round" stroke-linejoin="round"/>
<path d="M109.829 220.246C103.033 226.313 79.4678 294.876 82.5144 302.357C85.5611 309.837 125.536 316.668 125.536 316.668C125.536 316.668 121.585 239.255 121.383 237.964C121.182 236.674 109.829 220.246 109.829 220.246Z" fill="#263238"/>
<path d="M215.707 220.246C222.503 226.313 246.068 294.876 243.022 302.357C239.975 309.837 200 316.668 200 316.668C200 316.668 203.951 239.255 204.153 237.964C204.354 236.674 215.707 220.246 215.707 220.246Z" fill="#263238"/>
<path d="M109.829 220.246C109.829 220.246 125.51 202.528 162.597 201.475C192.396 200.597 212.792 215.391 215.707 220.246C218.622 225.102 202.449 289.819 202.449 289.819L211.501 324.658C211.501 324.658 162.957 340.831 119.601 324.658L125.422 287.87C125.422 287.87 110.154 229.307 109.829 220.246Z" fill="#263238"/>
<g opacity="0.5">
<path d="M183.282 208.595C183.282 208.595 169.849 223.398 156.214 219.272" stroke="white" stroke-linecap="round" stroke-linejoin="round"/>
<path d="M172.088 235.919C175.229 236.526 178.405 236.937 181.597 237.148" stroke="white" stroke-linecap="round" stroke-linejoin="round"/>
<path d="M133.517 217.287C142.043 225.04 154.589 231.678 167.891 234.997" stroke="white" stroke-linecap="round" stroke-linejoin="round"/>
<path d="M207.471 232.67C204.621 237.962 202.932 243.802 202.519 249.8" stroke="white" stroke-linecap="round" stroke-linejoin="round"/>
<path d="M213.679 223.161C212.246 224.88 210.937 226.699 209.763 228.605" stroke="white" stroke-linecap="round" stroke-linejoin="round"/>
<path d="M214.899 241.599C208.832 244.233 203.248 253.733 203.248 253.733C205.771 258.673 207.724 263.884 209.069 269.265" stroke="white" stroke-linecap="round" stroke-linejoin="round"/>
<path d="M205.671 292.084C205.671 292.084 211.352 291.162 214.899 287.369C218.446 283.576 228.728 284.595 230.185 287.369" stroke="white" stroke-linecap="round" stroke-linejoin="round"/>
<path d="M218.534 282.83C218.534 282.83 222.178 277.281 230.185 281.162" stroke="white" stroke-linecap="round" stroke-linejoin="round"/>
<path d="M112.981 224.865C112.981 224.865 120.98 230.194 121.761 244.742" stroke="white" stroke-linecap="round" stroke-linejoin="round"/>
<path d="M118.425 259.352C116.256 265.349 113.903 271.478 112.726 277.79" stroke="white" stroke-linecap="round" stroke-linejoin="round"/>
<path d="M114.702 244.742C116.818 245.278 121.621 247.289 122.024 249.765C122.218 250.915 120.532 253.672 120.137 254.725" stroke="white" stroke-linecap="round" stroke-linejoin="round"/>
<path d="M105.975 283.594C106.797 283.399 107.655 283.42 108.467 283.654C109.279 283.887 110.018 284.327 110.61 284.929" stroke="white" stroke-linecap="round" stroke-linejoin="round"/>
<path d="M97.1946 287.369C98.6398 286.407 100.164 285.57 101.751 284.867" stroke="white" stroke-linecap="round" stroke-linejoin="round"/>
<path d="M105.202 290.135C105.202 290.135 105.72 285.807 112.981 287.369C120.242 288.932 137.477 294.27 137.477 294.27" stroke="white" stroke-linecap="round" stroke-linejoin="round"/>
</g>
<path d="M181.658 207.252C181.658 207.252 173.317 215.461 163.22 215.461C153.123 215.461 143.483 205.953 143.483 205.953C143.483 205.953 148.689 203.362 150.085 198.173C150.174 197.859 150.244 197.539 150.296 197.216C150.674 194.942 150.068 191.07 149.19 187.251C147.811 181.237 145.766 175.214 145.766 175.214H178.383C178.383 175.214 176.838 182.738 175.819 189.674C175.635 190.948 175.46 192.194 175.328 193.38C175.196 194.565 175.056 195.838 174.994 196.892C174.59 204.24 181.658 207.252 181.658 207.252Z" fill="white" stroke="#263238" stroke-linecap="round" stroke-linejoin="round"/>
<path d="M212.362 324.72V328.486C212.361 328.69 212.337 328.893 212.292 329.092C212.149 329.635 211.833 330.117 211.39 330.463C210.947 330.808 210.404 330.999 209.842 331.006H120.444C119.874 331.006 119.32 330.816 118.87 330.466C118.42 330.117 118.1 329.627 117.959 329.074C117.914 328.876 117.89 328.673 117.889 328.469V324.702L212.362 324.72Z" fill="#757575"/>
<mask id="mask2_1_4515" style="mask-type:luminance" maskUnits="userSpaceOnUse" x="117" y="324" width="96" height="8">
<path d="M212.362 324.72V328.486C212.361 328.69 212.337 328.893 212.292 329.092C212.149 329.635 211.833 330.117 211.39 330.463C210.947 330.808 210.404 330.999 209.842 331.006H120.444C119.874 331.006 119.32 330.816 118.87 330.466C118.42 330.117 118.1 329.627 117.959 329.074C117.914 328.876 117.89 328.673 117.889 328.469V324.702L212.362 324.72Z" fill="white"/>
</mask>
<g mask="url(#mask2_1_4515)">
<path opacity="0.2" d="M212.362 324.72V328.486C212.361 328.69 212.337 328.894 212.292 329.092H117.959C117.914 328.894 117.89 328.69 117.889 328.486V324.72H212.362Z" fill="black"/>
</g>
<path d="M212.362 324.72V328.486C212.361 328.69 212.337 328.893 212.292 329.092C212.149 329.635 211.833 330.117 211.39 330.463C210.947 330.808 210.404 330.999 209.842 331.006H120.444C119.874 331.006 119.32 330.816 118.87 330.466C118.42 330.117 118.1 329.627 117.959 329.074C117.914 328.876 117.89 328.673 117.889 328.469V324.702L212.362 324.72Z" stroke="#263238" stroke-linecap="round" stroke-linejoin="round"/>
<path d="M211.475 327.231H118.767C118.334 327.245 117.91 327.109 117.567 326.844C117.224 326.58 116.984 326.204 116.888 325.782L108.837 260.81C108.803 260.56 108.823 260.306 108.896 260.065C108.969 259.824 109.093 259.601 109.259 259.412C109.426 259.223 109.631 259.072 109.861 258.969C110.091 258.866 110.341 258.815 110.593 258.817H219.658C219.91 258.815 220.16 258.866 220.39 258.969C220.62 259.072 220.825 259.223 220.992 259.412C221.158 259.601 221.282 259.824 221.355 260.065C221.428 260.306 221.448 260.56 221.414 260.81L213.363 325.782C213.27 326.207 213.029 326.586 212.684 326.852C212.338 327.117 211.91 327.251 211.475 327.231Z" fill="#757575" stroke="#263238" stroke-linecap="round" stroke-linejoin="round"/>
<path opacity="0.2" d="M119.145 325.861L111.243 263.584C111.224 263.408 111.243 263.229 111.298 263.06C111.352 262.89 111.441 262.734 111.559 262.601C111.677 262.468 111.822 262.361 111.983 262.287C112.145 262.213 112.32 262.174 112.498 262.171H217.744C217.922 262.174 218.098 262.213 218.26 262.287C218.422 262.361 218.567 262.468 218.686 262.601C218.804 262.734 218.894 262.89 218.95 263.059C219.005 263.228 219.025 263.407 219.008 263.584L211.106 325.861" fill="white"/>
<path d="M119.145 325.861L111.243 263.584C111.224 263.408 111.243 263.229 111.298 263.06C111.352 262.89 111.441 262.734 111.559 262.601C111.677 262.468 111.822 262.361 111.983 262.287C112.145 262.213 112.32 262.174 112.498 262.171H217.744C217.922 262.174 218.098 262.213 218.26 262.287C218.422 262.361 218.567 262.468 218.686 262.601C218.804 262.734 218.894 262.89 218.95 263.059C219.005 263.228 219.025 263.407 219.008 263.584L211.106 325.861" stroke="#263238" stroke-linecap="round" stroke-linejoin="round"/>
<path d="M166.179 298.687H156.653L167.716 287.097L162.579 296.299L166.179 298.687Z" fill="#730FF2" stroke="#263238" stroke-linecap="round" stroke-linejoin="round"/>
<path d="M162.448 304.763L174.195 293.428H164.888L168.225 295.886L162.448 304.763Z" fill="#730FF2" stroke="#263238" stroke-linecap="round" stroke-linejoin="round"/>
<path d="M242.205 364.203L245.015 367.399C245.015 367.399 247.649 373.387 240.37 380.718C233.091 388.05 214.223 389.498 206.883 388.225L202.256 388.849L186.514 385.442C186.514 385.442 178.541 381.544 181.799 374.704C185.056 367.864 242.205 364.203 242.205 364.203Z" fill="#730FF2" stroke="#263238" stroke-linecap="round" stroke-linejoin="round"/>
<path d="M237.376 379.586C231.292 385.934 211.8 387.198 203.661 385.345C201.44 384.836 193.353 384.546 187.33 382.387C184.081 381.236 181.43 379.542 180.622 376.978C178.287 369.664 198.867 355.748 198.867 355.748C198.867 355.748 211.993 358.277 214.715 358.926C217.885 359.673 221.119 360.12 224.373 360.261C230.615 360.533 234.839 359.699 239.413 361.666C244.593 363.905 244.663 371.982 237.376 379.586Z" fill="#757575"/>
<mask id="mask3_1_4515" style="mask-type:luminance" maskUnits="userSpaceOnUse" x="180" y="355" width="64" height="32">
<path d="M237.376 379.586C231.292 385.934 211.8 387.198 203.661 385.345C201.44 384.836 193.353 384.546 187.33 382.387C184.081 381.236 181.43 379.542 180.622 376.978C178.287 369.664 198.867 355.748 198.867 355.748C198.867 355.748 211.993 358.277 214.715 358.926C217.885 359.673 221.119 360.12 224.373 360.261C230.615 360.533 234.839 359.699 239.413 361.666C244.593 363.905 244.663 371.982 237.376 379.586Z" fill="white"/>
</mask>
<g mask="url(#mask3_1_4515)">
<path opacity="0.2" d="M224.338 360.261C219.649 367.917 207.945 382.615 187.33 382.387C184.081 381.236 181.43 379.542 180.622 376.978C178.287 369.664 198.867 355.748 198.867 355.748C198.867 355.748 211.993 358.277 214.715 358.926C217.874 359.671 221.095 360.118 224.338 360.261Z" fill="black"/>
</g>
<path d="M237.376 379.586C231.292 385.934 211.8 387.198 203.661 385.345C201.44 384.836 193.353 384.546 187.33 382.387C184.081 381.236 181.43 379.542 180.622 376.978C178.287 369.664 198.867 355.748 198.867 355.748C198.867 355.748 211.993 358.277 214.715 358.926C217.885 359.673 221.119 360.12 224.373 360.261C230.615 360.533 234.839 359.699 239.413 361.666C244.593 363.905 244.663 371.982 237.376 379.586Z" stroke="#263238" stroke-linecap="round" stroke-linejoin="round"/>
<path d="M195.135 364.677C195.135 364.677 215.329 370.771 219.122 370.376C222.915 369.98 223.381 373.089 223.381 373.089" stroke="#263238" stroke-linecap="round" stroke-linejoin="round"/>
<path d="M198.375 357.346C198.375 357.346 220.536 362.087 223.214 362.877C224.83 363.342 226.554 363.264 228.122 362.658" stroke="#263238" stroke-linecap="round" stroke-linejoin="round"/>
<path d="M202.484 357.697C202.295 359.852 201.547 361.92 200.316 363.698C199.084 365.476 197.411 366.903 195.46 367.838" stroke="#263238" stroke-linecap="round" stroke-linejoin="round"/>
<path d="M206.629 358.452C206.429 360.544 205.806 362.572 204.798 364.415C203.79 366.258 202.417 367.877 200.763 369.173" stroke="#263238" stroke-linecap="round" stroke-linejoin="round"/>
<path d="M211.045 359.98C211.045 359.98 212.239 366.46 205.347 371.227" stroke="#263238" stroke-linecap="round" stroke-linejoin="round"/>
<path d="M215.698 360.489C215.698 360.489 216.743 368.655 210.088 372.843" stroke="#263238" stroke-linecap="round" stroke-linejoin="round"/>
<path d="M220.677 361.2C220.677 361.2 220.501 369.726 214.89 373.378" stroke="#263238" stroke-linecap="round" stroke-linejoin="round"/>
<path d="M224.584 362.289C224.584 362.289 226.059 369.533 220.027 373.949" stroke="#263238" stroke-linecap="round" stroke-linejoin="round"/>
<path d="M200.421 352.385C198.463 365.652 178.006 380.069 178.006 380.069C178.006 380.069 172.343 374.757 170.472 374.976C168.602 375.196 160.814 374.643 160.814 374.643C160.814 374.643 99.214 351.586 91.8212 351.463C87.203 351.393 73.8925 347.346 67.3075 336.845C63.3916 330.611 61.8551 322.094 65.9027 310.795C72.5755 292.155 105.474 305.886 137.732 323.701C148.443 329.628 157.926 334.378 165.626 337.995C178.401 344.009 186.171 346.907 186.171 346.907L190.438 345.379L200.421 352.385Z" fill="#730FF2"/>
<mask id="mask4_1_4515" style="mask-type:luminance" maskUnits="userSpaceOnUse" x="63" y="301" width="138" height="80">
<path d="M200.421 352.385C198.463 365.652 178.006 380.069 178.006 380.069C178.006 380.069 172.343 374.757 170.472 374.976C168.602 375.196 160.814 374.643 160.814 374.643C160.814 374.643 99.214 351.586 91.8212 351.463C87.203 351.393 73.8925 347.346 67.3075 336.845C63.3916 330.611 61.8551 322.094 65.9027 310.795C72.5755 292.155 105.474 305.886 137.732 323.701C148.443 329.628 157.926 334.378 165.626 337.995C178.401 344.009 186.171 346.907 186.171 346.907L190.438 345.379L200.421 352.385Z" fill="white"/>
</mask>
<g mask="url(#mask4_1_4515)">
<path opacity="0.2" d="M200.421 352.385C198.463 365.652 178.006 380.069 178.006 380.069C178.006 380.069 172.343 374.757 170.472 374.976C168.602 375.196 160.814 374.643 160.814 374.643C160.814 374.643 99.214 351.586 91.8212 351.463C87.2029 351.393 73.8925 347.346 67.3075 336.845C75.0426 337.415 88.2214 338.706 94.5255 341.059C94.5255 341.059 87.5015 342.815 89.4331 344.501C91.3647 346.187 119.566 349.505 129.487 347.003C138.461 344.747 156.372 338.645 165.643 337.995C178.418 344.009 186.189 346.907 186.189 346.907L190.456 345.379L200.421 352.385Z" fill="black"/>
</g>
<path d="M200.421 352.385C198.463 365.652 178.006 380.069 178.006 380.069C178.006 380.069 172.343 374.757 170.472 374.976C168.602 375.196 160.814 374.643 160.814 374.643C160.814 374.643 99.214 351.586 91.8212 351.463C87.203 351.393 73.8925 347.346 67.3075 336.845C63.3916 330.611 61.8551 322.094 65.9027 310.795C72.5755 292.155 105.474 305.886 137.732 323.701C148.443 329.628 157.926 334.378 165.626 337.995C178.401 344.009 186.171 346.907 186.171 346.907L190.438 345.379L200.421 352.385Z" stroke="#263238" stroke-linecap="round" stroke-linejoin="round"/>
<path d="M145.871 339.567C148.057 339.189 150.261 338.741 152.377 338.179" stroke="#263238" stroke-linecap="round" stroke-linejoin="round"/>
<path d="M87.5366 340.734C105.386 342.165 123.763 342.569 141.542 340.225" stroke="#263238" stroke-linecap="round" stroke-linejoin="round"/>
<path d="M86.2459 365.432L83.41 368.628C83.41 368.628 80.776 374.616 88.0458 381.948C95.3157 389.279 114.193 390.728 121.533 389.454L126.169 390.078L141.902 386.698C141.902 386.698 149.91 382.808 146.626 375.96C143.342 369.111 86.2459 365.432 86.2459 365.432Z" fill="#730FF2" stroke="#263238" stroke-linecap="round" stroke-linejoin="round"/>
<path d="M129.593 356.977C129.593 356.977 116.467 359.506 113.736 360.147C101.541 363.027 95.6581 360.068 89.0819 362.895C83.8665 365.134 83.8139 373.212 91.0749 380.815C97.1595 387.163 116.651 388.427 124.79 386.575C128.206 385.802 145.511 385.495 147.838 378.199C150.164 370.902 129.593 356.977 129.593 356.977Z" fill="#757575" stroke="#263238" stroke-linecap="round" stroke-linejoin="round"/>
<path d="M133.316 365.906C133.316 365.906 113.122 372 109.329 371.605C105.536 371.21 105.07 374.318 105.07 374.318" stroke="#263238" stroke-linecap="round" stroke-linejoin="round"/>
<path d="M130.084 358.549C130.084 358.549 107.915 363.299 105.237 364.08C103.622 364.549 101.898 364.475 100.329 363.87" stroke="#263238" stroke-linecap="round" stroke-linejoin="round"/>
<path d="M125.975 358.926C126.165 361.081 126.913 363.149 128.144 364.927C129.376 366.705 131.049 368.132 132.999 369.067" stroke="#263238" stroke-linecap="round" stroke-linejoin="round"/>
<path d="M121.822 359.682C122.022 361.774 122.646 363.803 123.656 365.646C124.666 367.49 126.04 369.108 127.696 370.402" stroke="#263238" stroke-linecap="round" stroke-linejoin="round"/>
<path d="M117.415 361.2C117.415 361.2 116.212 367.68 123.104 372.448" stroke="#263238" stroke-linecap="round" stroke-linejoin="round"/>
<path d="M112.753 361.736C112.753 361.736 111.708 369.901 118.363 374.09" stroke="#263238" stroke-linecap="round" stroke-linejoin="round"/>
<path d="M107.783 362.43C107.783 362.43 107.95 370.955 113.569 374.608" stroke="#263238" stroke-linecap="round" stroke-linejoin="round"/>
<path d="M103.876 363.492C103.876 363.492 102.401 370.727 108.424 375.152" stroke="#263238" stroke-linecap="round" stroke-linejoin="round"/>
<path d="M261.266 310.672C254.55 292.04 221.686 305.834 189.472 323.71C160.99 339.514 141.068 347.003 141.068 347.003L136.801 345.493L126.827 352.517C128.811 365.775 149.304 380.148 149.304 380.148C149.304 380.148 154.949 374.818 156.828 375.038C158.707 375.257 166.486 374.687 166.486 374.687C166.486 374.687 228.087 351.516 235.436 351.384C242.785 351.253 272.18 341.006 261.266 310.672Z" fill="#730FF2" stroke="#263238" stroke-linecap="round" stroke-linejoin="round"/>
<path d="M171.895 358.531C173.651 358.654 175.46 358.725 177.242 358.733" stroke="#263238" stroke-linecap="round" stroke-linejoin="round"/>
<path d="M141.068 347.003C147.504 353.834 158.04 356.802 167.013 358.031" stroke="#263238" stroke-linecap="round" stroke-linejoin="round"/>
<path d="M213.565 334.922C226.164 337.319 240.177 339.514 252.855 336.555" stroke="#263238" stroke-linecap="round" stroke-linejoin="round"/>
<path d="M203.898 332.815C205.654 333.262 207.463 333.693 209.263 334.053" stroke="#263238" stroke-linecap="round" stroke-linejoin="round"/>
<path d="M175.863 189.648C175.679 190.921 175.503 192.168 175.372 193.353C172.088 196.716 166.592 201.343 161.324 201.501C157.469 201.615 153.422 199.964 150.138 198.147C150.227 197.832 150.297 197.513 150.349 197.19C150.726 194.916 150.12 191.044 149.242 187.225L175.863 189.648Z" fill="#263238"/>
<path d="M184.38 168.383C184.38 168.383 186.777 166.126 187.953 166.873C189.13 167.619 190.526 169.709 189.885 171.623C189.244 173.537 186.461 176.891 186.241 178.822C186.022 180.754 184.591 182.967 183.01 181.676C181.43 180.385 184.38 168.383 184.38 168.383Z" fill="white" stroke="#263238" stroke-linecap="round" stroke-linejoin="round"/>
<path d="M141.692 168.383C141.692 168.383 139.295 166.126 138.118 166.873C136.942 167.619 135.546 169.709 136.195 171.623C136.845 173.537 139.62 176.891 139.83 178.822C140.041 180.754 141.49 182.967 143.061 181.676C144.633 180.385 141.692 168.383 141.692 168.383Z" fill="white" stroke="#263238" stroke-linecap="round" stroke-linejoin="round"/>
<path d="M162.518 137.583C193.687 137.583 185.258 175.266 179.516 188.594C177.505 193.274 167.566 199.833 162.518 199.833C157.821 199.833 148.47 193.687 146.538 189.297C140.735 175.863 132.815 137.583 162.518 137.583Z" fill="white" stroke="#263238" stroke-linecap="round" stroke-linejoin="round"/>
<path d="M167.803 168.119C167.803 168.119 175.916 165.608 178.427 170.631" stroke="#263238" stroke-linecap="round" stroke-linejoin="round"/>
<path d="M173.844 174.942C173.844 175.899 173.361 176.698 172.755 176.698C172.149 176.698 171.675 175.916 171.675 174.942C171.675 173.967 172.158 173.186 172.755 173.186C173.352 173.186 173.844 173.985 173.844 174.942Z" fill="#263238"/>
<path d="M158.286 168.119C158.286 168.119 150.164 165.608 147.653 170.631" stroke="#263238" stroke-linecap="round" stroke-linejoin="round"/>
<path d="M152.272 174.942C152.272 175.899 152.763 176.698 153.36 176.698C153.957 176.698 154.449 175.916 154.449 174.942C154.449 173.967 153.957 173.186 153.36 173.186C152.763 173.186 152.272 173.985 152.272 174.942Z" fill="#263238"/>
<path d="M159.383 182.062C158.207 183.318 162.281 185.381 163.045 185.381C163.808 185.381 166.908 183.757 166.908 182.8" fill="white"/>
<path d="M159.383 182.062C158.207 183.318 162.281 185.381 163.045 185.381C163.808 185.381 166.908 183.757 166.908 182.8" stroke="#263238" stroke-linecap="round" stroke-linejoin="round"/>
<path d="M175.459 148.198C167.646 150.691 159.251 150.691 151.437 148.198C151.437 148.198 147.232 147.952 145.572 150.068C143.913 152.184 145.572 158.707 146.011 161.368C146.45 164.028 142.359 165.863 142.912 172.58L142.359 175.117C142.359 175.117 137.828 163.58 138.935 154.282C140.041 144.984 145.019 141.885 145.019 141.885C145.019 141.885 147.697 133.86 163.378 133.913C180.28 133.983 181.983 143.132 181.983 143.132C181.983 143.132 192.519 151.034 184.02 175.978L183.142 172.58C183.577 169.276 182.817 165.926 181 163.132C179.525 160.981 181.878 154.502 181.333 151.183C180.789 147.864 175.459 148.198 175.459 148.198Z" fill="#263238"/>
<path d="M156.284 188.436C158.404 189.423 160.716 189.927 163.053 189.911C165.26 189.956 167.455 189.583 169.524 188.814" fill="white"/>
<path d="M156.284 188.436C158.404 189.423 160.716 189.927 163.053 189.911C165.26 189.956 167.455 189.583 169.524 188.814" stroke="#263238" stroke-linecap="round" stroke-linejoin="round"/>
<path d="M174.775 151.165C175.45 154.578 176.684 157.856 178.427 160.867C181.061 165.073 184.169 165.503 185.056 170.631C185.056 170.631 193.142 156.986 186.303 145.011C186.303 145.011 184.152 131.419 163.045 131.419C141.937 131.419 132.165 146.126 140.366 168.708C142.352 167.844 144.073 166.469 145.353 164.723C146.633 162.977 147.427 160.922 147.653 158.769C148.081 161.846 147.304 164.969 145.485 167.487C145.485 167.487 156.354 165.881 159.173 156.82C159.173 156.82 158.075 162.843 154.449 165.398C154.449 165.398 158.549 170.578 163.229 162.483C167.909 154.388 170.727 149.541 174.775 151.165Z" fill="#263238"/>
<path opacity="0.2" d="M158.119 152.93C156.802 154.818 154.949 157.733 152.272 157.452" stroke="white" stroke-linecap="round" stroke-linejoin="round"/>
<path opacity="0.2" d="M173.844 145.09C170.288 137.855 162.579 146.723 160.059 150.217" stroke="white" stroke-linecap="round" stroke-linejoin="round"/>
<path opacity="0.2" d="M144.062 146.696C143.19 147.482 142.156 148.067 141.033 148.408" stroke="white" stroke-linecap="round" stroke-linejoin="round"/>
<path opacity="0.2" d="M169.515 138.338C162.342 130.831 152.175 139.558 146.494 144.554" stroke="white" stroke-linecap="round" stroke-linejoin="round"/>
<path opacity="0.2" d="M184.002 146.881C185.229 148.813 186.015 150.993 186.303 153.264" stroke="white" stroke-linecap="round" stroke-linejoin="round"/>
<path opacity="0.2" d="M178.427 143.729C179.567 143.7 180.69 144.005 181.658 144.607" stroke="white" stroke-linecap="round" stroke-linejoin="round"/>
<path opacity="0.2" d="M176.25 139.953C176.25 139.953 177.804 135.835 180.929 138.847" stroke="white" stroke-linecap="round" stroke-linejoin="round"/>
<path d="M199.921 242.117H128.627C126.299 242.117 124.413 244.004 124.413 246.332V249.352C124.413 251.68 126.299 253.566 128.627 253.566H199.921C202.248 253.566 204.135 251.68 204.135 249.352V246.332C204.135 244.004 202.248 242.117 199.921 242.117Z" stroke="white" stroke-width="1.35896" stroke-linecap="round" stroke-linejoin="round"/>
<path d="M156.012 245.252C156.286 245.288 156.563 245.216 156.785 245.053C157.008 244.889 157.158 244.646 157.206 244.374H157.935V251.292H156.855V246.024H155.977L156.012 245.252Z" fill="white"/>
<path d="M159.164 246.042C159.164 245.604 159.338 245.184 159.647 244.875C159.957 244.565 160.377 244.391 160.814 244.391C161.252 244.391 161.672 244.565 161.982 244.875C162.291 245.184 162.465 245.604 162.465 246.042V249.642C162.465 250.08 162.291 250.499 161.982 250.809C161.672 251.119 161.252 251.292 160.814 251.292C160.377 251.292 159.957 251.119 159.647 250.809C159.338 250.499 159.164 250.08 159.164 249.642V246.042ZM160.253 249.712C160.253 250.204 160.463 250.388 160.814 250.388C161.166 250.388 161.376 250.204 161.376 249.712V245.972C161.376 245.48 161.157 245.296 160.814 245.296C160.472 245.296 160.253 245.48 160.253 245.972V249.712Z" fill="white"/>
<path d="M163.08 246.042C163.08 245.825 163.122 245.611 163.205 245.41C163.288 245.21 163.41 245.028 163.563 244.875C163.716 244.722 163.898 244.6 164.099 244.517C164.299 244.434 164.514 244.391 164.73 244.391C164.947 244.391 165.162 244.434 165.362 244.517C165.562 244.6 165.744 244.722 165.898 244.875C166.051 245.028 166.172 245.21 166.255 245.41C166.338 245.611 166.381 245.825 166.381 246.042V249.642C166.381 249.859 166.338 250.073 166.255 250.273C166.172 250.474 166.051 250.656 165.898 250.809C165.744 250.962 165.562 251.084 165.362 251.167C165.162 251.25 164.947 251.292 164.73 251.292C164.514 251.292 164.299 251.25 164.099 251.167C163.898 251.084 163.716 250.962 163.563 250.809C163.41 250.656 163.288 250.474 163.205 250.273C163.122 250.073 163.08 249.859 163.08 249.642V246.042ZM164.16 249.712C164.16 250.204 164.379 250.388 164.73 250.388C165.082 250.388 165.292 250.204 165.292 249.712V245.972C165.292 245.48 165.073 245.296 164.73 245.296C164.388 245.296 164.16 245.48 164.16 245.972V249.712Z" fill="white"/>
<path d="M167.022 245.436C167.022 245.159 167.132 244.893 167.328 244.697C167.524 244.501 167.79 244.391 168.067 244.391C168.344 244.391 168.61 244.501 168.806 244.697C169.002 244.893 169.112 245.159 169.112 245.436V247.71C169.112 247.987 169.002 248.253 168.806 248.449C168.61 248.645 168.344 248.755 168.067 248.755C167.79 248.755 167.524 248.645 167.328 248.449C167.132 248.253 167.022 247.987 167.022 247.71V245.436ZM167.716 247.763C167.716 248.07 167.838 248.202 168.067 248.202C168.295 248.202 168.427 248.07 168.427 247.763V245.392C168.427 245.085 168.286 244.953 168.067 244.953C167.847 244.953 167.716 245.085 167.716 245.392V247.763ZM170.797 244.383H171.438L168.708 251.301H168.067L170.797 244.383ZM170.446 247.974C170.433 247.828 170.45 247.681 170.497 247.542C170.543 247.403 170.618 247.275 170.717 247.167C170.816 247.059 170.936 246.973 171.07 246.914C171.204 246.854 171.349 246.824 171.495 246.824C171.642 246.824 171.787 246.854 171.921 246.914C172.055 246.973 172.175 247.059 172.274 247.167C172.372 247.275 172.447 247.403 172.494 247.542C172.541 247.681 172.558 247.828 172.545 247.974V250.23C172.558 250.376 172.541 250.523 172.494 250.662C172.447 250.801 172.372 250.928 172.274 251.036C172.175 251.145 172.055 251.231 171.921 251.29C171.787 251.349 171.642 251.38 171.495 251.38C171.349 251.38 171.204 251.349 171.07 251.29C170.936 251.231 170.816 251.145 170.717 251.036C170.618 250.928 170.543 250.801 170.497 250.662C170.45 250.523 170.433 250.376 170.446 250.23V247.974ZM171.14 250.292C171.14 250.599 171.271 250.731 171.5 250.731C171.728 250.731 171.851 250.599 171.851 250.292V247.921C171.851 247.614 171.719 247.482 171.5 247.482C171.28 247.482 171.14 247.614 171.14 247.921V250.292Z" fill="white"/>
<path d="M122.542 146.824C130.445 135.787 127.904 120.434 116.868 112.531C105.831 104.628 90.4767 107.168 82.5737 118.205C74.6707 129.242 77.2113 144.596 88.2482 152.499C99.2852 160.402 114.639 157.861 122.542 146.824Z" stroke="#263238" stroke-width="0.996243" stroke-linecap="round" stroke-linejoin="round"/>
<path d="M122.235 113.262C117.359 108.492 110.87 105.727 104.052 105.514C97.2342 105.301 90.5849 107.656 85.4206 112.112" stroke="#263238" stroke-linecap="round" stroke-linejoin="round"/>
<path d="M128.513 142.613C130.321 138.004 130.837 132.989 130.007 128.108C129.176 123.226 127.029 118.664 123.798 114.913" stroke="#263238" stroke-linecap="round" stroke-linejoin="round"/>
<path d="M122.701 158.04L127.652 160.99L123.456 150.84C124.146 150.074 124.791 149.268 125.387 148.426" stroke="#263238" stroke-linecap="round" stroke-linejoin="round"/>
<path d="M85.4206 153.264C89.9124 157.138 95.5467 159.438 101.466 159.816C107.386 160.193 113.267 158.626 118.214 155.353L120.655 156.802" stroke="#263238" stroke-linecap="round" stroke-linejoin="round"/>
<path d="M77.9489 122.604C76.1027 127.234 75.5636 132.283 76.3904 137.199C77.2172 142.114 79.3781 146.709 82.6374 150.48" stroke="#263238" stroke-linecap="round" stroke-linejoin="round"/>
<path d="M80.7058 117.424C80.105 118.299 79.5596 119.211 79.0727 120.154" stroke="#263238" stroke-linecap="round" stroke-linejoin="round"/>
<path d="M98.7662 141.569L90.2409 133.359C89.8601 132.993 89.6407 132.49 89.6308 131.961C89.6209 131.433 89.8214 130.922 90.1882 130.541C90.5549 130.16 91.0579 129.941 91.5865 129.931C92.115 129.921 92.6258 130.122 93.0066 130.488" stroke="#263238" stroke-linecap="round" stroke-linejoin="round"/>
<path d="M112.884 122.103C113.178 121.663 113.634 121.358 114.153 121.254C114.671 121.15 115.21 121.257 115.65 121.55C116.09 121.844 116.396 122.3 116.5 122.819C116.603 123.337 116.497 123.876 116.203 124.316L103.674 143.044C103.513 143.287 103.301 143.492 103.052 143.643C102.803 143.795 102.524 143.89 102.234 143.922H102.059C101.529 143.929 101.018 143.727 100.636 143.36" stroke="#263238" stroke-linecap="round" stroke-linejoin="round"/>
<path d="M94.9469 132.367L101.681 138.847L111.243 124.553" stroke="#263238" stroke-linecap="round" stroke-linejoin="round"/>
<path d="M357.346 133.983C357.346 133.983 345.054 132.622 337.53 119.127C330.005 105.632 289.591 110.066 289.591 110.066C289.591 110.066 289.828 114.79 296.079 116.01L291.689 118.117C291.689 118.117 292.971 123.526 304.42 123.043L301.365 126.432C301.365 126.432 306.176 130.357 318.24 128.636L315.966 131.559C315.966 131.559 321.603 135.484 331.173 132.727L330.128 135.405C330.128 135.405 337.38 135.932 341.656 134.062C341.674 134.062 349.944 139.163 357.346 133.983Z" fill="white"/>
<mask id="mask5_1_4515" style="mask-type:luminance" maskUnits="userSpaceOnUse" x="289" y="109" width="69" height="28">
<path d="M357.346 133.983C357.346 133.983 345.054 132.622 337.53 119.127C330.005 105.632 289.591 110.066 289.591 110.066C289.591 110.066 289.828 114.79 296.079 116.01L291.689 118.117C291.689 118.117 292.971 123.526 304.42 123.043L301.365 126.432C301.365 126.432 306.176 130.357 318.24 128.636L315.966 131.559C315.966 131.559 321.603 135.484 331.173 132.727L330.128 135.405C330.128 135.405 337.38 135.932 341.656 134.062C341.674 134.062 349.944 139.163 357.346 133.983Z" fill="white"/>
</mask>
<g mask="url(#mask5_1_4515)">
<path opacity="0.4" d="M357.346 133.992C349.918 139.163 341.647 134.071 341.647 134.071C337.371 135.923 330.119 135.414 330.119 135.414L331.138 132.692C321.576 135.458 315.94 131.524 315.94 131.524L318.214 128.601C306.15 130.357 301.338 126.388 301.338 126.388L304.446 123.052C293.032 123.517 291.724 118.117 291.724 118.117L296.114 116.019C289.863 114.79 289.626 110.066 289.626 110.066C289.626 110.066 291.917 114.149 298.52 114.017C298.52 114.017 297.414 116.774 304.174 117.283C304.174 117.283 309.89 119.715 314.034 117.898C314.034 117.898 315.422 120.725 320.391 120.242L318.714 122.463C318.714 122.463 319.232 125.378 325.387 123.93L324.509 126.792C324.509 126.792 326.528 129.136 334.448 127.389C334.448 127.389 331.972 129.004 332.788 129.83C333.605 130.655 336.098 131.05 338.258 130.84C338.223 130.822 346.678 137.504 357.346 133.992Z" fill="#730FF2"/>
</g>
<path d="M357.346 133.983C357.346 133.983 345.054 132.622 337.53 119.127C330.005 105.632 289.591 110.066 289.591 110.066C289.591 110.066 289.828 114.79 296.079 116.01L291.689 118.117C291.689 118.117 292.971 123.526 304.42 123.043L301.365 126.432C301.365 126.432 306.176 130.357 318.24 128.636L315.966 131.559C315.966 131.559 321.603 135.484 331.173 132.727L330.128 135.405C330.128 135.405 337.38 135.932 341.656 134.062C341.674 134.062 349.944 139.163 357.346 133.983Z" stroke="#263238" stroke-linecap="round" stroke-linejoin="round"/>
<path d="M305.017 112.63C300.952 113.657 298.494 113.332 295.473 114.869C295.473 114.869 298.107 118.469 305.044 117.986" fill="white"/>
<path d="M305.017 112.63C300.952 113.657 298.494 113.332 295.473 114.869C295.473 114.869 298.107 118.469 305.044 117.986" stroke="#263238" stroke-linecap="round" stroke-linejoin="round"/>
<path d="M308.108 119.408C306.358 119.78 304.648 120.315 302.998 121.006C302.998 121.006 303.999 125.686 314.982 123.447" stroke="#263238" stroke-linecap="round" stroke-linejoin="round"/>
<path d="M319.258 124.974L316.08 127.047C319.811 128.572 323.929 128.879 327.845 127.925" stroke="#263238" stroke-linecap="round" stroke-linejoin="round"/>
<path d="M331.006 128.004C331.006 128.004 327.863 130.216 327.968 130.523C328.073 130.831 334.263 133.157 339.865 130.111" fill="white"/>
<path d="M331.006 128.004C331.006 128.004 327.863 130.216 327.968 130.523C328.073 130.831 334.263 133.157 339.865 130.111" stroke="#263238" stroke-linecap="round" stroke-linejoin="round"/>
<path d="M311.69 113.956C309.767 114.834 304.069 115.659 303.691 116.493C303.691 116.493 305.553 121.708 315.105 118.767" fill="white"/>
<path d="M311.69 113.956C309.767 114.834 304.069 115.659 303.691 116.493C303.691 116.493 305.553 121.708 315.105 118.767" stroke="#263238" stroke-linecap="round" stroke-linejoin="round"/>
<path d="M318.091 120.04C316.638 120.623 315.275 121.41 314.043 122.376C314.043 122.376 317.748 127.521 326.748 123.078" fill="white"/>
<path d="M318.091 120.04C316.638 120.623 315.275 121.41 314.043 122.376C314.043 122.376 317.748 127.521 326.748 123.078" stroke="#263238" stroke-linecap="round" stroke-linejoin="round"/>
<path d="M327.889 123.069C327.096 123.425 326.385 123.938 325.797 124.578C325.21 125.218 324.76 125.972 324.474 126.792C324.474 126.792 328.925 129.672 336.555 126.678" fill="white"/>
<path d="M327.889 123.069C327.096 123.425 326.385 123.938 325.797 124.578C325.21 125.218 324.76 125.972 324.474 126.792C324.474 126.792 328.925 129.672 336.555 126.678" stroke="#263238" stroke-linecap="round" stroke-linejoin="round"/>
<path d="M319.592 115.738C319.592 115.738 314.166 116.897 314.017 117.898C314.017 117.898 318.407 121.647 325.352 119.759" fill="white"/>
<path d="M319.592 115.738C319.592 115.738 314.166 116.897 314.017 117.898C314.017 117.898 318.407 121.647 325.352 119.759" stroke="#263238" stroke-linecap="round" stroke-linejoin="round"/>
<path d="M326.168 119.276C325.325 119.704 324.592 120.319 324.026 121.076C324.026 121.076 326.124 124.184 331.533 122.49" fill="white"/>
<path d="M326.168 119.276C325.325 119.704 324.592 120.319 324.026 121.076C324.026 121.076 326.124 124.184 331.533 122.49" stroke="#263238" stroke-linecap="round" stroke-linejoin="round"/>
<path d="M363.492 115.115L359.242 116.581L357.206 112.323C357.106 112.107 356.928 111.937 356.709 111.846C356.489 111.755 356.243 111.749 356.02 111.831L341.542 116.774C341.307 116.861 341.106 117.021 340.97 117.232C340.834 117.443 340.77 117.692 340.787 117.942L341.164 122.762L317.028 131.077C316.466 131.28 315.999 131.687 315.72 132.216C315.441 132.745 315.369 133.359 315.518 133.939L325.264 170.683C325.332 170.956 325.457 171.212 325.63 171.435C325.803 171.657 326.02 171.841 326.268 171.975C326.515 172.108 326.788 172.189 327.069 172.212C327.35 172.234 327.632 172.198 327.898 172.106L374.335 156.108C374.897 155.903 375.363 155.497 375.644 154.968C375.924 154.44 375.999 153.827 375.854 153.246L366.126 116.546C366.057 116.272 365.933 116.016 365.76 115.794C365.587 115.571 365.37 115.387 365.123 115.252C364.875 115.118 364.603 115.036 364.322 115.012C364.041 114.989 363.759 115.024 363.492 115.115Z" fill="#730FF2"/>
<mask id="mask6_1_4515" style="mask-type:luminance" maskUnits="userSpaceOnUse" x="315" y="111" width="61" height="62">
<path d="M363.492 115.115L359.242 116.581L357.206 112.323C357.106 112.107 356.928 111.937 356.709 111.846C356.489 111.755 356.243 111.749 356.02 111.831L341.542 116.774C341.307 116.861 341.106 117.021 340.97 117.232C340.834 117.443 340.77 117.692 340.787 117.942L341.164 122.762L317.028 131.077C316.466 131.28 315.999 131.687 315.72 132.216C315.441 132.745 315.369 133.359 315.518 133.939L325.264 170.683C325.332 170.956 325.457 171.212 325.63 171.435C325.803 171.657 326.02 171.841 326.268 171.975C326.515 172.108 326.788 172.189 327.069 172.212C327.35 172.234 327.632 172.198 327.898 172.106L374.335 156.108C374.897 155.903 375.363 155.497 375.644 154.968C375.924 154.44 375.999 153.827 375.854 153.246L366.126 116.546C366.057 116.272 365.933 116.016 365.76 115.794C365.587 115.571 365.37 115.387 365.123 115.252C364.875 115.118 364.603 115.036 364.322 115.012C364.041 114.989 363.759 115.024 363.492 115.115Z" fill="white"/>
</mask>
<g mask="url(#mask6_1_4515)">
<path opacity="0.2" d="M363.492 115.115L359.242 116.581L357.206 112.323C357.106 112.107 356.928 111.937 356.709 111.846C356.489 111.755 356.243 111.749 356.02 111.831L341.542 116.774C341.307 116.861 341.106 117.021 340.97 117.232C340.834 117.443 340.77 117.692 340.787 117.942L341.164 122.762L317.028 131.077C316.466 131.28 315.999 131.687 315.72 132.216C315.441 132.745 315.369 133.359 315.518 133.939L325.264 170.683C325.332 170.956 325.457 171.212 325.63 171.435C325.803 171.657 326.02 171.841 326.268 171.975C326.515 172.108 326.788 172.189 327.069 172.212C327.35 172.234 327.632 172.198 327.898 172.106L374.335 156.108C374.897 155.903 375.363 155.497 375.644 154.968C375.924 154.44 375.999 153.827 375.854 153.246L366.126 116.546C366.057 116.272 365.933 116.016 365.76 115.794C365.587 115.571 365.37 115.387 365.123 115.252C364.875 115.118 364.603 115.036 364.322 115.012C364.041 114.989 363.759 115.024 363.492 115.115Z" fill="black"/>
</g>
<path d="M363.492 115.115L359.242 116.581L357.206 112.323C357.106 112.107 356.928 111.937 356.709 111.846C356.489 111.755 356.243 111.749 356.02 111.831L341.542 116.774C341.307 116.861 341.106 117.021 340.97 117.232C340.834 117.443 340.77 117.692 340.787 117.942L341.164 122.762L317.028 131.077C316.466 131.28 315.999 131.687 315.72 132.216C315.441 132.745 315.369 133.359 315.518 133.939L325.264 170.683C325.332 170.956 325.457 171.212 325.63 171.435C325.803 171.657 326.02 171.841 326.268 171.975C326.515 172.108 326.788 172.189 327.069 172.212C327.35 172.234 327.632 172.198 327.898 172.106L374.335 156.108C374.897 155.903 375.363 155.497 375.644 154.968C375.924 154.44 375.999 153.827 375.854 153.246L366.126 116.546C366.057 116.272 365.933 116.016 365.76 115.794C365.587 115.571 365.37 115.387 365.123 115.252C364.875 115.118 364.603 115.036 364.322 115.012C364.041 114.989 363.759 115.024 363.492 115.115Z" stroke="#263238" stroke-linecap="round" stroke-linejoin="round"/>
<path d="M374.098 156.187L327.661 172.185C327.081 172.366 326.456 172.336 325.896 172.1C325.337 171.864 324.879 171.436 324.605 170.894L324.377 170.429L313.446 147.75L308.029 136.547C307.899 136.298 307.825 136.023 307.812 135.743C307.799 135.462 307.847 135.183 307.953 134.923C308.059 134.663 308.221 134.429 308.426 134.238C308.632 134.047 308.877 133.903 309.144 133.816L355.59 117.828C356.168 117.642 356.794 117.668 357.355 117.904C357.915 118.139 358.373 118.566 358.645 119.109L375.248 153.466C375.378 153.716 375.45 153.992 375.461 154.274C375.472 154.556 375.421 154.836 375.311 155.096C375.201 155.356 375.036 155.588 374.826 155.777C374.617 155.965 374.368 156.106 374.098 156.187Z" fill="#730FF2"/>
<mask id="mask7_1_4515" style="mask-type:luminance" maskUnits="userSpaceOnUse" x="307" y="117" width="69" height="56">
<path d="M374.098 156.187L327.661 172.185C327.081 172.366 326.456 172.336 325.896 172.1C325.337 171.864 324.879 171.436 324.605 170.894L324.377 170.429L313.446 147.75L308.029 136.547C307.899 136.298 307.825 136.023 307.812 135.743C307.799 135.462 307.847 135.183 307.953 134.923C308.059 134.663 308.221 134.429 308.426 134.238C308.632 134.047 308.877 133.903 309.144 133.816L355.59 117.828C356.168 117.642 356.794 117.668 357.355 117.904C357.915 118.139 358.373 118.566 358.645 119.109L375.248 153.466C375.378 153.716 375.45 153.992 375.461 154.274C375.472 154.556 375.421 154.836 375.311 155.096C375.201 155.356 375.036 155.588 374.826 155.777C374.617 155.965 374.368 156.106 374.098 156.187Z" fill="white"/>
</mask>
<g mask="url(#mask7_1_4515)">
<path opacity="0.2" d="M340.927 148.057C340.677 151.1 339.419 153.971 337.351 156.217C335.283 158.463 332.525 159.954 329.513 160.455C328.546 164.109 326.8 167.512 324.395 170.429L313.446 147.75C322.691 149.348 333.333 150.243 340.927 148.057Z" fill="black"/>
</g>
<path d="M374.098 156.187L327.661 172.185C327.081 172.366 326.456 172.336 325.896 172.1C325.337 171.864 324.879 171.436 324.605 170.894L324.377 170.429L313.446 147.75L308.029 136.547C307.899 136.298 307.825 136.023 307.812 135.743C307.799 135.462 307.847 135.183 307.953 134.923C308.059 134.663 308.221 134.429 308.426 134.238C308.632 134.047 308.877 133.903 309.144 133.816L355.59 117.828C356.168 117.642 356.794 117.668 357.355 117.904C357.915 118.139 358.373 118.566 358.645 119.109L375.248 153.466C375.378 153.716 375.45 153.992 375.461 154.274C375.472 154.556 375.421 154.836 375.311 155.096C375.201 155.356 375.036 155.588 374.826 155.777C374.617 155.965 374.368 156.106 374.098 156.187Z" stroke="#263238" stroke-linecap="round" stroke-linejoin="round"/>
<path d="M340.927 148.048C340.927 148.048 328.881 150.682 317.388 140.34C305.895 129.997 269.098 147.135 269.098 147.135C269.098 147.135 270.854 151.525 277.141 150.647L273.69 154.045C273.69 154.045 276.631 158.751 287.326 154.625L285.455 158.795C285.455 158.795 291.268 160.973 302.137 155.468L300.917 158.98C300.917 158.98 307.52 160.885 315.694 155.213L315.597 158.11C315.597 158.11 322.621 156.275 326.089 153.141C326.089 153.167 335.554 155.336 340.927 148.048Z" fill="white"/>
<mask id="mask8_1_4515" style="mask-type:luminance" maskUnits="userSpaceOnUse" x="269" y="137" width="72" height="23">
<path d="M340.927 148.048C340.927 148.048 328.881 150.682 317.388 140.34C305.895 129.997 269.098 147.135 269.098 147.135C269.098 147.135 270.854 151.525 277.141 150.647L273.69 154.045C273.69 154.045 276.631 158.751 287.326 154.625L285.455 158.795C285.455 158.795 291.268 160.973 302.137 155.468L300.917 158.98C300.917 158.98 307.52 160.885 315.694 155.213L315.597 158.11C315.597 158.11 322.621 156.275 326.089 153.141C326.089 153.167 335.554 155.336 340.927 148.048Z" fill="white"/>
</mask>
<g mask="url(#mask8_1_4515)">
<path opacity="0.4" d="M340.927 148.057C335.554 155.336 326.089 153.167 326.089 153.167C322.639 156.302 315.597 158.137 315.597 158.137L315.694 155.23C307.52 160.92 300.917 159.006 300.917 159.006L302.137 155.494C291.268 161.008 285.455 158.822 285.455 158.822L287.326 154.66C276.631 158.778 273.69 154.072 273.69 154.072L277.149 150.674C270.828 151.552 269.089 147.162 269.089 147.162C269.089 147.162 272.601 150.287 278.747 148.04C278.747 148.04 278.581 151.007 285.148 149.322C285.148 149.322 291.347 149.796 294.683 146.74C294.683 146.74 296.913 148.97 301.461 146.925L300.583 149.559C300.583 149.559 302.006 152.149 307.379 148.804L307.44 151.806C307.44 151.806 310.074 153.369 317.055 149.172C317.055 149.172 315.228 151.499 316.256 152.017C317.283 152.535 319.768 152.105 321.769 151.218C321.787 151.218 331.928 154.818 340.927 148.057Z" fill="#730FF2"/>
</g>
<path d="M340.927 148.048C340.927 148.048 328.881 150.682 317.388 140.34C305.895 129.997 269.098 147.135 269.098 147.135C269.098 147.135 270.854 151.525 277.141 150.647L273.69 154.045C273.69 154.045 276.631 158.751 287.326 154.625L285.455 158.795C285.455 158.795 291.268 160.973 302.137 155.468L300.917 158.98C300.917 158.98 307.52 160.885 315.694 155.213L315.597 158.11C315.597 158.11 322.621 156.275 326.089 153.141C326.089 153.167 335.554 155.336 340.927 148.048Z" stroke="#263238" stroke-linecap="round" stroke-linejoin="round"/>
<path d="M284.472 144.624C280.96 146.907 278.519 147.372 276.157 149.804C276.157 149.804 279.836 152.359 286.219 149.681" fill="white"/>
<path d="M284.472 144.624C280.96 146.907 278.519 147.372 276.157 149.804C276.157 149.804 279.836 152.359 286.219 149.681" stroke="#263238" stroke-linecap="round" stroke-linejoin="round"/>
<path d="M289.582 150.015C288.047 150.928 286.6 151.983 285.262 153.167C285.262 153.167 287.703 157.285 297.387 151.631" stroke="#263238" stroke-linecap="round" stroke-linejoin="round"/>
<path d="M301.944 151.745L299.565 154.739C303.589 154.972 307.584 153.927 310.979 151.754" stroke="#263238" stroke-linecap="round" stroke-linejoin="round"/>
<path d="M313.999 150.858C313.999 150.858 311.734 153.957 311.936 154.221C312.138 154.484 318.74 154.695 323.069 150.006" fill="white"/>
<path d="M313.999 150.858C313.999 150.858 311.734 153.957 311.936 154.221C312.138 154.484 318.74 154.695 323.069 150.006" stroke="#263238" stroke-linecap="round" stroke-linejoin="round"/>
<path d="M291.25 143.729C289.696 145.133 284.577 147.785 284.49 148.698C284.49 148.698 287.931 153.044 296.053 147.188" fill="white"/>
<path d="M291.25 143.729C289.696 145.133 284.577 147.785 284.49 148.698C284.49 148.698 287.931 153.044 296.053 147.188" stroke="#263238" stroke-linecap="round" stroke-linejoin="round"/>
<path d="M299.249 147.443C298.061 148.462 297.024 149.645 296.167 150.955C296.167 150.955 301.33 154.642 308.459 147.548" fill="white"/>
<path d="M299.249 147.443C298.061 148.462 297.024 149.645 296.167 150.955C296.167 150.955 301.33 154.642 308.459 147.548" stroke="#263238" stroke-linecap="round" stroke-linejoin="round"/>
<path d="M309.504 147.17C308.867 147.762 308.357 148.478 308.007 149.273C307.657 150.069 307.473 150.928 307.467 151.797C307.467 151.797 312.594 153.097 318.881 147.811" fill="white"/>
<path d="M309.504 147.17C308.867 147.762 308.357 148.478 308.007 149.273C307.657 150.069 307.473 150.928 307.467 151.797C307.467 151.797 312.594 153.097 318.881 147.811" stroke="#263238" stroke-linecap="round" stroke-linejoin="round"/>
<path d="M299.293 142.886C299.293 142.886 294.525 145.73 294.709 146.723C294.709 146.723 300.039 148.874 306.036 144.852" fill="white"/>
<path d="M299.293 142.886C299.293 142.886 294.525 145.73 294.709 146.723C294.709 146.723 300.039 148.874 306.036 144.852" stroke="#263238" stroke-linecap="round" stroke-linejoin="round"/>
<path d="M306.659 144.132C305.995 144.804 305.499 145.622 305.21 146.521C305.21 146.521 308.196 148.795 312.77 145.458" fill="white"/>
<path d="M306.659 144.132C305.995 144.804 305.499 145.622 305.21 146.521C305.21 146.521 308.196 148.795 312.77 145.458" stroke="#263238" stroke-linecap="round" stroke-linejoin="round"/>
<path d="M246.999 272.997C248.044 272.645 249.15 272.241 250.3 271.794" stroke="#263238" stroke-width="2" stroke-linecap="round" stroke-linejoin="round"/>
<path d="M254.295 270.117C274.103 261.249 303.112 240.001 296.869 205.426C291.724 176.978 268.203 179.516 261.126 185.381C249.124 195.337 247.297 218.745 264.638 223.644C293.436 231.713 315.325 195.759 322.481 182.08" stroke="#263238" stroke-width="2" stroke-linecap="round" stroke-linejoin="round" stroke-dasharray="7.9 4.94"/>
<path d="M323.508 180.148C324.5 178.164 325.018 176.978 325.018 176.978" stroke="#263238" stroke-width="2" stroke-linecap="round" stroke-linejoin="round"/>
</svg>
